<svg xmlns="http://www.w3.org/2000/svg" xmlns:xlink="http://www.w3.org/1999/xlink" width="500" zoomAndPan="magnify" viewBox="0 0 375 374.999991" height="500" preserveAspectRatio="xMidYMid meet" version="1.0"><defs><g/><clipPath id="2e312e600e"><path d="M 69 24.675781 L 254 24.675781 L 254 228 L 69 228 Z M 69 24.675781 " clip-rule="nonzero"/></clipPath><clipPath id="3c72b402aa"><path d="M 70 95 L 283.351562 95 L 283.351562 240.675781 L 70 240.675781 Z M 70 95 " clip-rule="nonzero"/></clipPath><clipPath id="8fdaf73dc8"><path d="M 68.851562 144 L 161 144 L 161 230 L 68.851562 230 Z M 68.851562 144 " clip-rule="nonzero"/></clipPath><clipPath id="52120ad257"><path d="M 209 225 L 240 225 L 240 240.675781 L 209 240.675781 Z M 209 225 " clip-rule="nonzero"/></clipPath><clipPath id="b9a6a77d0f"><path d="M 208 173 L 283.351562 173 L 283.351562 232 L 208 232 Z M 208 173 " clip-rule="nonzero"/></clipPath><clipPath id="79a2991b4e"><path d="M 208 196 L 281 196 L 281 240.675781 L 208 240.675781 Z M 208 196 " clip-rule="nonzero"/></clipPath></defs><rect x="-37.5" width="450" fill="#ffffff" y="-37.499999" height="449.999989" fill-opacity="1"/><rect x="-37.5" width="450" fill="#001240" y="-37.499999" height="449.999989" fill-opacity="1"/><g clip-path="url(#2e312e600e)"><path fill="#0066ff" d="M 230.175781 193.40625 C 209.175781 196.300781 194.457031 183.765625 198.546875 153.609375 C 202.582031 127.523438 195.015625 96.757812 193.621094 96.257812 C 193.203125 94.921875 191.640625 90.125 191.570312 89.949219 C 191.484375 89.726562 191.089844 88.660156 190.96875 88.347656 C 185.730469 73.664062 179.824219 68.128906 175.273438 66.613281 C 172.070312 65.542969 169.089844 66.386719 165.542969 68.492188 C 161.835938 70.699219 157.703125 75.316406 152.707031 83.675781 C 148.660156 90.484375 143.558594 102.601562 143.558594 102.601562 C 143.542969 102.636719 143.523438 102.671875 143.507812 102.707031 C 143.300781 103.171875 143.09375 103.652344 142.886719 104.136719 C 141.214844 108.03125 139.476562 112.324219 137.632812 117.046875 C 119.078125 164.914062 138.148438 232.203125 91.308594 227.222656 C 47.519531 222.570312 79.042969 124.011719 97.648438 91.898438 C 116.253906 59.769531 153.15625 6.472656 189.882812 30.898438 C 226.613281 55.324219 246.820312 108.515625 251.382812 134.40625 C 256.691406 164.464844 249.902344 190.683594 230.175781 193.40625 Z M 230.175781 193.40625 " fill-opacity="1" fill-rule="evenodd"/></g><path fill="#002fa3" d="M 69.191406 190.648438 C 69.035156 191.0625 69.570312 202.367188 70.15625 205.902344 C 70.742188 209.433594 72.945312 209.433594 72.945312 209.433594 C 72.945312 209.433594 85.625 184.960938 101.699219 160.792969 C 117.789062 136.644531 136.066406 122.320312 136.066406 122.320312 C 139.304688 111.53125 143.523438 102.707031 143.523438 102.707031 C 143.523438 102.707031 88.019531 137.867188 69.191406 190.648438 Z M 69.191406 190.648438 " fill-opacity="1" fill-rule="evenodd"/><g clip-path="url(#3c72b402aa)"><path fill="#0066ff" d="M 282.152344 187.699219 C 277.570312 212.984375 266.171875 231.238281 244.425781 238.773438 C 240.566406 239.960938 237.464844 240.960938 230.710938 240.566406 C 224.855469 240.21875 207.914062 236.023438 208.796875 217.605469 C 209.539062 197.558594 228.160156 196.179688 234.570312 197.25 C 240.324219 198.214844 243.820312 199.644531 248.800781 201.058594 C 258.859375 203.917969 272.953125 204.679688 278.394531 188.25 C 279.550781 184.769531 279.878906 180.683594 279.429688 176.304688 C 277.949219 161.792969 268.078125 143.882812 252.074219 132.644531 C 238.824219 123.355469 221.410156 118.632812 201.097656 124.234375 C 148.867188 138.628906 128.882812 179.910156 122.972656 203.488281 C 117.0625 227.070312 96.460938 236.101562 81.199219 225.136719 C 36.957031 193.320312 132.671875 91.070312 214.464844 96.085938 C 265.027344 99.191406 289.042969 149.710938 282.152344 187.699219 Z M 282.152344 187.699219 " fill-opacity="1" fill-rule="evenodd"/></g><path fill="#002fa3" d="M 189.640625 97.570312 C 189.640625 97.570312 225.0625 90.96875 247.886719 106.878906 C 247.886719 106.878906 254.125 120.027344 255.414062 135.195312 C 255.414062 135.195312 233.089844 114.289062 195.171875 126.078125 C 195.171875 126.078125 193.585938 106.445312 189.640625 97.570312 " fill-opacity="1" fill-rule="evenodd"/><path fill="#0066ff" d="M 193.621094 96.277344 C 193.621094 96.277344 198.859375 112.566406 199.082031 126.269531 C 199.082031 126.269531 229.730469 116.769531 251.4375 134.800781 C 251.4375 134.800781 247.4375 112.980469 241.390625 101.070312 C 241.410156 101.070312 218.238281 89.898438 193.621094 96.277344 " fill-opacity="1" fill-rule="evenodd"/><path fill="#c5ddff" d="M 244.027344 128.390625 C 244.027344 128.390625 243.0625 117.496094 235.773438 98.792969 C 233.433594 92.761719 230.417969 85.902344 226.574219 78.332031 C 217.792969 61.046875 193.054688 26.832031 171.742188 26.832031 C 169.761719 26.832031 167.796875 27.125 165.886719 27.761719 C 115.273438 44.601562 86.347656 127.941406 86.347656 127.941406 C 84.867188 133.785156 87.417969 137.609375 91.914062 137.609375 C 97.496094 137.609375 106.089844 131.714844 113.757812 116.390625 C 126.644531 90.589844 148.417969 41.34375 171.261719 41.34375 C 171.933594 41.34375 172.605469 41.378906 173.277344 41.464844 C 187.007812 43.222656 203.199219 58.71875 213.449219 71.230469 C 218.109375 76.925781 223.746094 86.777344 228.90625 96.703125 C 228.894531 96.699219 244.027344 128.390625 244.027344 128.390625 Z M 205.574219 52.582031 C 205.4375 52.824219 205.214844 52.945312 204.921875 52.945312 C 201.320312 52.945312 186.9375 35.84375 173.429688 35.570312 L 172.828125 35.570312 C 158.804688 35.570312 149.054688 45.410156 138.871094 59.527344 C 128.554688 73.851562 109.742188 119.804688 102.386719 121.234375 C 101.507812 121.40625 100.695312 121.492188 99.992188 121.492188 C 94.839844 121.492188 94.476562 116.875 98.941406 107.757812 C 98.941406 107.757812 117.097656 74.664062 132.136719 56.269531 C 144.160156 41.566406 156.925781 30.414062 172.070312 30.414062 C 173.1875 30.414062 174.324219 30.484375 175.480469 30.605469 C 187.296875 31.898438 207.488281 49.339844 205.574219 52.582031 Z M 205.574219 52.582031 " fill-opacity="0.3" fill-rule="nonzero"/><path fill="#c5ddff" d="M 172.054688 30.433594 C 156.929688 30.433594 144.144531 41.585938 132.121094 56.289062 C 117.082031 74.679688 98.925781 107.773438 98.925781 107.773438 C 94.460938 116.890625 94.824219 121.511719 99.976562 121.511719 C 100.679688 121.511719 101.472656 121.425781 102.371094 121.253906 C 109.726562 119.804688 128.539062 73.871094 138.855469 59.546875 C 149.019531 45.410156 158.789062 35.585938 172.8125 35.585938 L 173.414062 35.585938 C 186.9375 35.863281 201.320312 52.960938 204.90625 52.960938 C 205.199219 52.960938 205.421875 52.839844 205.558594 52.597656 C 207.472656 49.359375 187.28125 31.914062 175.464844 30.621094 C 174.328125 30.484375 173.191406 30.433594 172.054688 30.433594 " fill-opacity="1" fill-rule="nonzero"/><path fill="#002fa3" d="M 197.824219 162.484375 C 197.929688 160.757812 198.050781 158.984375 198.1875 157.175781 C 197.996094 158.792969 197.859375 160.585938 197.824219 162.484375 Z M 199.046875 124.890625 C 199.035156 124.890625 199.023438 124.894531 199.015625 124.90625 C 199.03125 125.320312 199.046875 125.734375 199.082031 126.148438 C 199.082031 125.734375 199.066406 125.320312 199.046875 124.890625 Z M 199.046875 124.890625 " fill-opacity="0.8" fill-rule="nonzero"/><path fill="#002fa3" d="M 198.515625 118.460938 C 198.738281 120.546875 198.910156 122.699219 199.03125 124.90625 L 199.066406 124.90625 C 198.980469 122.769531 198.773438 120.613281 198.515625 118.460938 M 193.84375 96.964844 L 193.792969 96.964844 C 193.742188 96.964844 193.691406 96.984375 193.640625 96.984375 C 194.429688 99.691406 195.277344 102.671875 196.238281 105.945312 C 196.257812 106 196.273438 106.03125 196.273438 106.085938 C 195.257812 101.742188 194.257812 98.363281 193.84375 96.964844 " fill-opacity="0.8" fill-rule="nonzero"/><path fill="#002fa3" d="M 250.386719 173.445312 C 248.664062 178.996094 246.113281 183.648438 242.71875 187.078125 C 241.71875 188.078125 240.652344 188.976562 239.53125 189.769531 C 236.828125 191.664062 233.691406 192.90625 230.160156 193.386719 C 228.214844 193.664062 226.335938 193.785156 224.511719 193.785156 C 221.824219 193.785156 219.273438 193.492188 216.894531 192.90625 C 215.363281 192.457031 213.785156 192.007812 212.234375 191.300781 C 210.460938 190.507812 208.917969 189.40625 207.523438 188.335938 C 202.769531 184.476562 199.496094 178.546875 198.238281 170.464844 C 197.859375 167.738281 197.757812 165.015625 197.808594 162.484375 C 197.910156 160.757812 198.03125 158.984375 198.167969 157.175781 C 198.925781 147.054688 199.976562 135.835938 199.082031 126.269531 L 199.082031 126.148438 C 199.082031 125.734375 199.066406 125.320312 199.046875 124.890625 C 198.960938 122.769531 198.808594 120.597656 198.515625 118.460938 C 197.875 113.773438 197.203125 109.773438 196.273438 106.085938 C 195.773438 103.914062 195.277344 101.964844 194.84375 100.414062 C 194.414062 98.84375 194.070312 97.65625 193.84375 96.964844 C 193.707031 96.519531 193.226562 95.035156 193.242188 95.035156 C 177.136719 43.257812 156.460938 70.835938 143.507812 102.722656 C 143.078125 103.015625 129.125 112.859375 117.546875 123.269531 C 117.546875 123.269531 140.855469 76.628906 149.210938 64.390625 C 157.667969 51.6875 168.382812 44.152344 181.285156 52.839844 C 191.554688 59.546875 199.839844 76.316406 203.90625 94.535156 C 205.25 100.535156 206.128906 106.703125 206.472656 112.703125 C 206.695312 116.632812 206.679688 120.667969 206.507812 124.664062 C 206.109375 133.371094 204.886719 141.902344 203.492188 148.8125 C 201.839844 157 204.128906 165.566406 209.882812 171.617188 C 212.15625 174.015625 214.898438 175.945312 218.1875 176.980469 C 219.996094 177.546875 221.839844 177.824219 223.648438 177.824219 C 234.484375 177.824219 244.578125 168.292969 245.941406 157.484375 C 247.144531 147.867188 247.214844 139.007812 246.734375 131.335938 C 245.648438 113.945312 242.046875 102.515625 242.117188 102.515625 L 242.667969 103.707031 C 244.40625 107.273438 245.597656 111.203125 246.941406 115.203125 C 248.285156 119.183594 251.089844 132.628906 251.453125 134.679688 C 253.796875 148.109375 253.796875 161.636719 250.386719 173.445312 Z M 250.386719 173.445312 " fill-opacity="0.8" fill-rule="nonzero"/><path fill="#002fa3" d="M 194.191406 118.53125 C 135.496094 132.679688 114.238281 180.632812 106.453125 193.179688 C 102.800781 199.058594 98.027344 202.28125 93.738281 202.28125 C 88.878906 202.28125 84.644531 198.128906 83.367188 188.957031 C 80.972656 171.722656 97.269531 150.246094 97.269531 150.246094 C 97.269531 150.246094 81.730469 167.015625 79.648438 173.375 C 77.578125 179.738281 75.476562 186.871094 76.632812 195.027344 C 77.855469 203.730469 83.746094 213.003906 93.738281 213.3125 C 94.015625 213.3125 94.273438 213.332031 94.53125 213.332031 C 114.375 213.332031 115.359375 191.300781 131.050781 171.101562 C 142.851562 155.933594 160.320312 144.660156 160.320312 144.660156 C 160.320312 144.660156 156.753906 147.417969 152.257812 151.863281 C 152.964844 151.226562 153.707031 150.574219 154.464844 149.917969 C 164.835938 140.195312 178.167969 131.628906 195.1875 126.027344 C 195.1875 125.957031 195.171875 125.804688 195.15625 125.578125 L 194.191406 118.53125 " fill-opacity="0.4" fill-rule="nonzero"/><path fill="#002fa3" d="M 195.136719 125.578125 C 195.15625 125.820312 195.171875 125.976562 195.171875 126.027344 L 195.171875 126.0625 L 195.1875 126.0625 L 195.136719 125.578125 " fill-opacity="0.8" fill-rule="nonzero"/><path fill="#4c6dbe" d="M 112.980469 221.964844 C 110.085938 224.828125 106.832031 226.929688 103.386719 228.242188 C 107.210938 226.929688 110.363281 224.671875 112.980469 221.964844 M 76.167969 220.554688 C 77.855469 222.621094 79.871094 224.398438 82.179688 225.808594 C 81.871094 225.601562 78.75 223.550781 76.167969 220.554688 M 124.195312 199.109375 C 123.75 200.628906 123.335938 202.09375 122.992188 203.507812 C 122.871094 203.972656 122.75 204.4375 122.613281 204.902344 C 123.421875 202.402344 123.921875 200.335938 124.195312 199.109375 M 139.976562 166.652344 C 135.859375 172.515625 132.570312 178.410156 129.933594 184.0625 C 132.308594 179.097656 135.582031 173.101562 139.976562 166.652344 " fill-opacity="1" fill-rule="nonzero"/><path fill="#002fa3" d="M 70.859375 194.957031 C 70.65625 195.9375 70.5 196.90625 70.363281 197.871094 C 70.5 196.90625 70.671875 195.9375 70.859375 194.957031 M 79.097656 174.339844 C 77.820312 176.273438 74.945312 181.148438 72.566406 188.648438 C 74.082031 184.011719 76.304688 179.203125 79.097656 174.339844 " fill-opacity="0.8" fill-rule="nonzero"/><g clip-path="url(#8fdaf73dc8)"><path fill="#002fa3" d="M 160.320312 144.695312 C 160.21875 144.78125 156.6875 147.519531 152.257812 151.898438 C 149.074219 155.035156 145.421875 159.035156 142.199219 163.484375 C 141.421875 164.550781 140.683594 165.621094 139.976562 166.652344 C 135.859375 172.496094 132.570312 178.410156 129.933594 184.0625 C 125.9375 192.421875 124.4375 197.902344 124.4375 197.902344 C 124.4375 197.902344 124.367188 198.335938 124.195312 199.109375 C 123.730469 200.628906 123.335938 202.09375 122.992188 203.507812 C 122.871094 203.972656 122.75 204.4375 122.613281 204.902344 C 120.957031 209.96875 118.914062 216.132812 112.980469 221.964844 C 110.085938 224.828125 106.832031 226.949219 103.386719 228.242188 C 101.09375 229.035156 98.480469 229.796875 95.6875 229.796875 C 95.394531 229.796875 95.101562 229.796875 94.792969 229.78125 C 89.933594 229.609375 85.925781 228.324219 82.195312 225.808594 C 81.871094 225.601562 81.542969 225.378906 81.214844 225.136719 C 79.269531 223.742188 77.699219 222.484375 76.183594 220.554688 C 74.890625 218.914062 73.238281 216.917969 72.222656 214.363281 C 69.398438 207.28125 68.292969 197.472656 69.121094 191.0625 C 69.242188 190.097656 70.6875 195.9375 70.878906 194.957031 C 70.949219 194.613281 70.878906 194.113281 70.964844 193.765625 C 71.414062 191.886719 71.878906 190.234375 72.394531 188.597656 C 73.925781 183.960938 76.304688 179.203125 79.097656 174.339844 C 79.441406 173.753906 79.613281 173.429688 79.648438 173.394531 C 79.613281 173.480469 79.421875 174.152344 79.042969 175.253906 C 77.804688 178.789062 75.496094 186.871094 76.632812 195.042969 C 77.855469 203.746094 83.746094 213.019531 93.738281 213.332031 C 93.996094 213.332031 94.273438 213.347656 94.53125 213.347656 C 114.359375 213.347656 115.359375 191.320312 131.054688 171.117188 C 142.75 156.070312 160.027344 144.832031 160.320312 144.695312 Z M 160.320312 144.695312 " fill-opacity="0.8" fill-rule="nonzero"/></g><path fill="#c5ddff" d="M 174.773438 118.167969 C 163.421875 121.289062 147.125 131.042969 133.257812 143.023438 C 121.75 152.96875 116.359375 164.222656 112.035156 173.289062 C 109.914062 177.738281 108.070312 181.582031 105.867188 184.476562 C 103.042969 188.164062 99.769531 189.957031 95.890625 189.957031 C 95.304688 189.957031 94.703125 189.921875 94.101562 189.835938 C 91.394531 189.476562 89.3125 188.042969 88.226562 185.855469 C 85.316406 179.945312 90.378906 170.171875 95.804688 160.671875 L 96.167969 160.035156 C 99.683594 153.863281 106.882812 145.554688 115.425781 137.765625 C 122.9375 130.921875 135.050781 121.269531 150.125 114.152344 C 151.378906 113.566406 152.636719 112.945312 153.863281 112.359375 C 162.699219 108.085938 171.828125 103.671875 182.441406 103.601562 L 182.5625 103.601562 C 188.089844 103.601562 189.089844 106.566406 189.261719 107.84375 C 189.796875 111.894531 184.921875 115.375 174.773438 118.167969 Z M 174.773438 118.167969 " fill-opacity="0.3" fill-rule="nonzero"/><path fill="#c5ddff" d="M 182.648438 105.5 L 182.542969 105.5 C 171.328125 105.585938 161.820312 110.929688 151.707031 115.71875 C 125.539062 128.078125 105.109375 149.96875 99.304688 160.171875 C 95.496094 166.859375 85.640625 183.5625 94.6875 184.804688 C 95.152344 184.875 95.582031 184.890625 96.011719 184.890625 C 108.332031 184.890625 107.625 159.070312 131.105469 138.800781 C 144.316406 127.390625 161.199219 116.738281 173.984375 113.21875 C 186.367188 109.808594 188.832031 105.5 182.648438 105.5 " fill-opacity="0.4" fill-rule="nonzero"/><path fill="#c5ddff" d="M 242.082031 153.742188 C 240.71875 167.585938 232.625 173.875 224.457031 173.875 C 216.292969 173.875 208.832031 168.171875 206.644531 157.8125 C 205.679688 153.261719 207.574219 140.832031 208.972656 124.320312 C 209.710938 115.566406 210.296875 105.636719 210.261719 95.140625 C 210.261719 94.847656 210.261719 94.570312 210.28125 94.3125 C 210.417969 92.398438 211.074219 91.535156 212.125 91.535156 C 213.328125 91.535156 215.050781 92.691406 217.050781 94.691406 C 222.769531 100.429688 230.882812 113.21875 236.34375 126.511719 C 240.289062 136.144531 242.839844 146.054688 242.082031 153.742188 Z M 242.082031 153.742188 " fill-opacity="0.3" fill-rule="nonzero"/><path fill="#c5ddff" d="M 224.957031 127.078125 C 224.957031 127.078125 227.144531 134.9375 224.597656 148.433594 C 223.578125 153.796875 217.636719 157.484375 216.6875 162.15625 C 215.691406 167.015625 219.066406 169.652344 223.457031 169.652344 C 229.210938 169.652344 236.707031 165.085938 238.238281 154.949219 C 240.273438 141.59375 235.292969 130.613281 230.867188 125.148438 C 230.175781 124.304688 229.195312 123.734375 228.109375 123.597656 C 228.074219 123.597656 228.042969 123.578125 228.007812 123.578125 C 226.386719 123.355469 224.941406 124.613281 224.941406 126.25 Z M 224.957031 127.078125 " fill-opacity="0.5" fill-rule="nonzero"/><g clip-path="url(#52120ad257)"><path fill="#0066ff" d="M 209.832031 225.914062 C 211.347656 231.859375 217.410156 237.632812 225.988281 239.859375 C 227.851562 240.289062 229.503906 240.480469 230.710938 240.546875 C 231.726562 240.597656 232.65625 240.632812 233.535156 240.632812 C 236.050781 240.632812 237.980469 240.410156 239.71875 240.046875 C 237.667969 240.390625 235.671875 240.566406 233.777344 240.566406 C 221.234375 240.566406 212 233.480469 209.832031 225.914062 " fill-opacity="1" fill-rule="nonzero"/></g><g clip-path="url(#b9a6a77d0f)"><path fill="#002fa3" d="M 209.039062 214.796875 C 208.917969 215.691406 208.851562 216.621094 208.796875 217.605469 C 208.730469 219.261719 208.796875 220.792969 208.988281 222.226562 C 209.195312 223.398438 209.46875 224.621094 209.847656 225.914062 C 208.710938 221.484375 208.660156 217.726562 209.039062 214.796875 M 283.304688 173.289062 C 282.132812 188.441406 273.726562 210.3125 256.378906 222.398438 C 250.558594 225.484375 244.113281 226.964844 238.085938 226.964844 C 225.886719 226.964844 215.292969 220.878906 214.550781 209.589844 C 214.054688 201.902344 220.238281 199.214844 220.238281 199.214844 C 220.238281 199.214844 218.1875 199.972656 215.792969 201.886719 C 213.777344 203.523438 212.019531 205.679688 210.761719 208.453125 C 211.054688 207.816406 211.28125 207.488281 211.28125 207.488281 C 211.28125 207.488281 207.921875 228.757812 234.398438 231.878906 C 234.847656 231.929688 235.328125 231.945312 235.84375 231.945312 C 241.445312 231.945312 251.023438 229.085938 255.226562 226.878906 C 270.128906 219.054688 277.863281 203.765625 280.085938 196.300781 L 282.152344 187.71875 C 282.34375 187.691406 283.613281 178.167969 283.304688 173.289062 " fill-opacity="0.4" fill-rule="nonzero"/></g><path fill="#6884c9" d="M 210.777344 208.453125 C 210.242188 209.609375 209.417969 211.761719 209.039062 214.796875 C 209.347656 212.382812 209.953125 210.28125 210.777344 208.453125 " fill-opacity="1" fill-rule="nonzero"/><g clip-path="url(#79a2991b4e)"><path fill="#002fa3" d="M 280.101562 196.285156 C 277.878906 203.765625 270.144531 219.054688 255.242188 226.863281 C 251.023438 229.066406 241.460938 231.929688 235.863281 231.929688 C 235.34375 231.929688 234.863281 231.910156 234.414062 231.859375 C 207.9375 228.757812 211.296875 207.46875 211.296875 207.46875 C 211.296875 207.46875 211.089844 207.796875 210.78125 208.4375 C 209.953125 210.261719 209.351562 212.367188 209.039062 214.777344 C 208.679688 217.707031 208.710938 221.464844 209.847656 225.914062 C 212.019531 233.480469 220.496094 240.84375 233.742188 240.664062 C 235.65625 240.636719 237.671875 240.390625 239.722656 240.046875 C 241.359375 239.703125 242.820312 239.253906 244.425781 238.753906 C 248.628906 237.460938 252.453125 235.703125 255.898438 233.515625 C 275.554688 220.328125 280.101562 196.285156 280.101562 196.285156 Z M 280.101562 196.285156 " fill-opacity="0.8" fill-rule="nonzero"/></g><path fill="#c5ddff" d="M 272.191406 200.386719 C 272.191406 200.386719 264.097656 207.160156 254.171875 207.160156 L 254.15625 207.160156 C 246.558594 207.160156 243.199219 204.125 238.703125 202.507812 C 235.828125 201.472656 232.570312 200.609375 229.574219 200.609375 C 226.179688 200.609375 223.113281 201.714844 221.253906 204.902344 C 218.753906 209.230469 225.335938 218.003906 240.148438 218.003906 C 240.960938 218.003906 241.804688 217.96875 242.683594 217.914062 C 254.363281 217.175781 265.421875 210.640625 272.191406 200.386719 " fill-opacity="0.3" fill-rule="nonzero"/><path fill="#c5ddff" d="M 245.785156 209.867188 C 245.785156 209.867188 242.082031 210.3125 235.964844 208.730469 C 233.535156 208.089844 232.054688 205.695312 229.953125 205.109375 C 227.75 204.503906 226.40625 205.660156 226.234375 207.296875 C 226.007812 209.46875 227.835938 212.484375 232.453125 213.554688 C 238.53125 214.949219 243.769531 213.589844 246.457031 212.175781 C 246.871094 211.953125 247.164062 211.605469 247.285156 211.210938 C 247.285156 211.195312 247.285156 211.175781 247.300781 211.175781 C 247.472656 210.574219 246.941406 209.96875 246.179688 209.902344 Z M 245.785156 209.867188 " fill-opacity="0.5" fill-rule="nonzero"/><path fill="#002fa3" d="M 279.429688 176.304688 C 277.945312 161.792969 268.074219 143.882812 252.070312 132.644531 L 250.175781 122.734375 C 266.078125 135.214844 280.53125 152.640625 279.429688 176.304688 Z M 279.429688 176.304688 " fill-opacity="0.8" fill-rule="nonzero"/><path fill="#c5ddff" d="M 249.144531 109.789062 C 249.195312 109.203125 277.863281 129.5625 281.601562 164.394531 C 273.78125 131.59375 256.792969 120.203125 252.039062 118.011719 C 251.210938 115.066406 250.195312 112.273438 249.144531 109.789062 Z M 249.144531 109.789062 " fill-opacity="1" fill-rule="evenodd"/><g fill="#c5ddff" fill-opacity="1"><g transform="translate(83.579996, 281.216893)"><g><path d="M 28.6875 -6.921875 L 12.28125 -6.921875 L 9.546875 0 L -0.265625 0 L 15.921875 -37.53125 L 25.734375 -37.53125 L 41.546875 0 L 31.359375 0 Z M 25.890625 -14.15625 L 20.53125 -28.03125 L 15.0625 -14.15625 Z M 25.890625 -14.15625 "/></g></g></g><g fill="#c5ddff" fill-opacity="1"><g transform="translate(124.852701, 281.216893)"><g><path d="M 38.390625 0 L 29.96875 0 L 12.703125 -23.109375 L 12.703125 0 L 3.75 0 L 3.75 -37.53125 L 12.171875 -37.53125 L 29.484375 -14.375 L 29.484375 -37.53125 L 38.390625 -37.53125 Z M 38.390625 0 "/></g></g></g><g fill="#c5ddff" fill-opacity="1"><g transform="translate(166.983021, 281.216893)"><g><path d="M 13.296875 0 L 3.75 0 L 3.75 -37.53125 L 13.296875 -37.53125 Z M 13.296875 0 "/></g></g></g><g fill="#c5ddff" fill-opacity="1"><g transform="translate(184.028104, 281.216893)"><g><path d="M 44.984375 0 L 36.5625 0 L 36.515625 -24.390625 L 27.5 -3.75 L 21.28125 -3.75 L 12.28125 -24.390625 L 12.28125 0 L 3.75 0 L 3.75 -37.578125 L 14.203125 -37.578125 L 24.390625 -15.21875 L 34.578125 -37.578125 L 44.984375 -37.578125 Z M 44.984375 0 "/></g></g></g><g fill="#c5ddff" fill-opacity="1"><g transform="translate(232.804925, 281.216893)"><g><path d="M 33.125 -30.015625 L 13.296875 -30.015625 L 13.296875 -22.5625 L 31.203125 -22.5625 L 31.203125 -15.0625 L 13.296875 -15.0625 L 13.296875 -7.5 L 33.71875 -7.5 L 33.71875 0 L 3.75 0 L 3.75 -37.53125 L 33.125 -37.53125 Z M 33.125 -30.015625 "/></g></g></g><g fill="#ffffff" fill-opacity="1"><g transform="translate(82.663756, 308.657714)"><g><path d="M 1.691406 -15.125 L 1.691406 0 L 9.519531 0 L 9.519531 -3.023438 L 4.71875 -3.023438 L 4.71875 -15.125 Z M 1.691406 -15.125 "/></g></g></g><g fill="#ffffff" fill-opacity="1"><g transform="translate(105.786236, 308.657714)"><g><path d="M 9.519531 0 L 9.519531 -3.023438 L 4.71875 -3.023438 L 4.71875 -6.050781 L 8.695312 -6.050781 L 8.695312 -9.074219 L 4.71875 -9.074219 L 4.71875 -12.097656 L 9.265625 -12.097656 L 9.265625 -15.125 L 1.691406 -15.125 L 1.691406 0 Z M 9.519531 0 "/></g></g></g><g fill="#ffffff" fill-opacity="1"><g transform="translate(129.141311, 308.657714)"><g><path d="M 0.339844 0 L 3.765625 0 L 4.355469 -1.628906 L 9.371094 -1.628906 L 9.984375 0 L 13.390625 0 L 7.023438 -15.671875 L 6.707031 -15.671875 Z M 5.457031 -4.464844 L 6.875 -8.398438 L 8.25 -4.464844 Z M 5.457031 -4.464844 "/></g></g></g><g fill="#ffffff" fill-opacity="1"><g transform="translate(155.64717, 308.657714)"><g><path d="M 9.222656 0 L 12.648438 0 L 9.136719 -6.238281 C 13.578125 -7.53125 13.050781 -15.125 7.65625 -15.125 L 1.691406 -15.125 L 1.691406 0 L 4.71875 0 L 4.71875 -5.773438 L 6.175781 -5.773438 Z M 4.71875 -8.714844 L 4.71875 -12.097656 L 7.382812 -12.097656 C 9.433594 -12.097656 9.433594 -8.714844 7.382812 -8.714844 Z M 4.71875 -8.714844 "/></g></g></g><g fill="#ffffff" fill-opacity="1"><g transform="translate(181.30718, 308.657714)"><g><path d="M 4.71875 -8.226562 L 12.375 0.316406 L 13.175781 0.316406 L 13.175781 -15.101562 L 10.132812 -15.101562 L 10.132812 -6.558594 L 2.496094 -15.441406 L 1.691406 -15.441406 L 1.691406 0 L 4.71875 0 Z M 4.71875 -8.226562 "/></g></g></g><g fill="#ffffff" fill-opacity="1"><g transform="translate(208.89149, 308.657714)"><g><path d="M 4.71875 0 L 4.71875 -15.125 L 1.691406 -15.125 L 1.691406 0 Z M 4.71875 0 "/></g></g></g><g fill="#ffffff" fill-opacity="1"><g transform="translate(228.01735, 308.657714)"><g><path d="M 4.71875 -8.226562 L 12.375 0.316406 L 13.175781 0.316406 L 13.175781 -15.101562 L 10.132812 -15.101562 L 10.132812 -6.558594 L 2.496094 -15.441406 L 1.691406 -15.441406 L 1.691406 0 L 4.71875 0 Z M 4.71875 -8.226562 "/></g></g></g><g fill="#ffffff" fill-opacity="1"><g transform="translate(255.60166, 308.657714)"><g><path d="M 12.605469 -0.929688 L 12.605469 -7.574219 L 9.539062 -7.574219 L 9.539062 -3.023438 C 9.265625 -2.984375 8.96875 -2.941406 8.695312 -2.941406 C 2.855469 -2.941406 2.582031 -11.972656 8.695312 -12.183594 C 10.300781 -12.226562 11.273438 -11.886719 11.867188 -11.632812 L 12.226562 -14.699219 C 11.949219 -14.785156 10.492188 -15.3125 8.695312 -15.25 C -1.796875 -14.871094 -1.289062 0.0859375 8.695312 0.0859375 C 10.132812 0.0859375 11.441406 -0.273438 12.605469 -0.929688 Z M 12.605469 -0.929688 "/></g></g></g></svg>